<svg width="16" height="16" fill="none" xmlns="http://www.w3.org/2000/svg"><path fill-rule="evenodd" clip-rule="evenodd" d="M1.333 2c0-.368.299-.667.667-.667h4.667c.368 0 .666.299.666.667v4.667a.667.667 0 0 1-.666.666H2a.667.667 0 0 1-.667-.666V2Zm1.334.667V6H6V2.667H2.667ZM8.667 2c0-.368.298-.667.666-.667H14c.368 0 .667.299.667.667v4.667a.667.667 0 0 1-.667.666H9.333a.667.667 0 0 1-.666-.666V2ZM10 2.667V6h3.333V2.667H10ZM8.667 9.333c0-.368.298-.666.666-.666H14c.368 0 .667.298.667.666V14a.667.667 0 0 1-.667.667H9.333A.667.667 0 0 1 8.667 14V9.333ZM10 10v3.333h3.333V10H10ZM1.333 9.333c0-.368.299-.666.667-.666h4.667c.368 0 .666.298.666.666V14a.667.667 0 0 1-.666.667H2A.667.667 0 0 1 1.333 14V9.333ZM2.667 10v3.333H6V10H2.667Z" fill="#fff"/></svg>